<svg width="1024" height="1024" viewBox="0 0 1024 1024" fill="none" xmlns="http://www.w3.org/2000/svg">
<path d="M0 15C0 6.71573 6.71573 0 15 0H156.646V883.275H9.99999C4.47714 883.275 0 878.798 0 873.275V15Z" fill="#8B5CF6"/>
<path d="M1024 838.363V1009C1024 1017.28 1017.28 1024 1009 1024H15C6.71573 1024 0 1017.28 0 1009V838.363H1024Z" fill="#8B5CF6"/>
<rect width="170.49" height="898.666" transform="matrix(0.705983 -0.708229 0.579262 0.815141 36.2856 120.767)" fill="#8B5CF6"/>
<path d="M545.36 15C545.36 6.71574 552.076 0 560.36 0L689.907 0C698.191 0 704.907 6.71573 704.907 15V856.328H555.36C549.837 856.328 545.36 851.85 545.36 846.328V15Z" fill="#8B5CF6"/>
<path d="M867.354 15C867.354 6.71574 874.069 0 882.354 0L1009 0C1017.28 0 1024 6.71573 1024 15V856.328H877.354C871.831 856.328 867.354 851.85 867.354 846.328V15Z" fill="#8B5CF6"/>
<path d="M105.703 717.043L37.0634 585.208L387.072 327.963L451.093 450.929C453.643 455.827 452.103 462.45 447.653 465.721L105.703 717.043Z" fill="#8B5CF6"/>
<path d="M661.395 485.053V299.415H878.958V475.053C878.958 480.576 874.481 485.053 868.958 485.053H661.395Z" fill="#8B5CF6"/>
</svg>
